
<svg width="32" height="32" viewBox="0 0 32 32" fill="none" xmlns="http://www.w3.org/2000/svg">
  <rect width="32" height="32" rx="16" fill="#0F172A"/>
  <path d="M8 10.5C8 9.67157 8.67157 9 9.5 9H22.5C23.3284 9 24 9.67157 24 10.5V21.5C24 22.3284 23.3284 23 22.5 23H9.5C8.67157 23 8 22.3284 8 21.5V10.5Z" fill="#0EA5E9"/>
  <path d="M14 13C14.5523 13 15 12.5523 15 12C15 11.4477 14.5523 11 14 11C13.4477 11 13 11.4477 13 12C13 12.5523 13.4477 13 14 13Z" fill="white"/>
  <path d="M14 17C14.5523 17 15 16.5523 15 16C15 15.4477 14.5523 15 14 15C13.4477 15 13 15.4477 13 16C13 16.5523 13.4477 17 14 17Z" fill="white"/>
  <path d="M14 21C14.5523 21 15 20.5523 15 20C15 19.4477 14.5523 19 14 19C13.4477 19 13 19.4477 13 20C13 20.5523 13.4477 21 14 21Z" fill="white"/>
  <path d="M18 12H22" stroke="white" stroke-width="2" stroke-linecap="round"/>
  <path d="M18 16H22" stroke="white" stroke-width="2" stroke-linecap="round"/>
  <path d="M18 20H22" stroke="white" stroke-width="2" stroke-linecap="round"/>
</svg>
